<?xml version="1.0" standalone="no"?><!DOCTYPE svg PUBLIC "-//W3C//DTD SVG 1.1//EN" "http://www.w3.org/Graphics/SVG/1.1/DTD/svg11.dtd"><svg t="1541172703558" class="icon" style="" viewBox="0 0 1024 1024" version="1.1" xmlns="http://www.w3.org/2000/svg" p-id="1289" xmlns:xlink="http://www.w3.org/1999/xlink" width="200" height="200"><defs><style type="text/css"></style></defs><path d="M65.892824 466.718575c0-5.809588 0-11.620199 0-17.431834 7.632184-13.863394 19.705729-17.696883 34.944513-17.616038 76.073162 0.406272 152.158604-0.231278 228.227673 0.573079 13.559458 0.145316 20.787416-4.37075 27.488346-15.473132 15.286881-25.325997 32.275602-49.620451 47.826509-74.790898 5.657108-9.156983 10.798445-12.335525 22.269234-9.319697 64.480593 16.938577 129.062499 33.58038 193.958574 48.839631 101.17095 23.7838 200.076192 61.000162 307.117108 50.816753 24.177792-2.301526 33.701136 11.437019 29.367227 35.383532-21.690015 119.853324-43.441432 239.695392-65.25732 359.525179-4.533464 24.898234-17.624225 36.250314-43.18764 36.265665-224.168022 0.139176-448.336044 0.139176-672.503043 0-25.592069-0.013304-38.711484-11.146386-43.284859-36.195053-14.378142-78.735932-28.277353-157.563967-42.762947-236.281479C82.461969 549.501878 73.987564 508.145021 65.892824 466.718575z" p-id="1290" fill="#265D91"></path><path d="M884.48188 250.995281c0 37.996158 0 72.788191 0 109.310718-5.266186 0.428786-10.24174 0.726582-15.197849 1.25361-75.744665 8.06097-147.016244-13.952426-218.888532-32.282766-84.8382-21.639871-169.842183-42.621724-254.630239-64.446823-11.80645-3.039365-18.509427-1.405067-25.131559 9.718805-15.427081 25.911356-32.279696 50.997887-49.178362 75.99334-3.155004 4.668547-9.18666 10.425944-13.960613 10.490415-55.098472 0.735792-110.208201 0.46972-166.531629 0.46972-0.608896-5.354195-1.529916-9.741319-1.539126-14.131513-0.104382-48.78744-0.192391-97.575903-0.01842-146.361296 0.100289-28.206742 11.924136-40.306895 40.316105-40.410254 73.179113-0.264026 146.36232-0.254815 219.542456-0.007163 28.963001 0.098242 39.982491 11.449299 40.22298 40.08892 0.136106 16.121939 0.024561 32.241832 0.024561 50.313263C588.495808 250.995281 735.669648 250.995281 884.48188 250.995281z" p-id="1291" fill="#265D91"></path></svg>