<?xml version="1.0" standalone="no"?><!DOCTYPE svg PUBLIC "-//W3C//DTD SVG 1.1//EN" "http://www.w3.org/Graphics/SVG/1.1/DTD/svg11.dtd"><svg t="1541168901508" class="icon" style="" viewBox="0 0 1024 1024" version="1.1" xmlns="http://www.w3.org/2000/svg" p-id="9588" xmlns:xlink="http://www.w3.org/1999/xlink" width="200" height="200"><defs><style type="text/css"></style></defs><path d="M166.016 67.648C282.688 294.4 247.296 607.68 250.048 855.104c0.192 17.728 124.032 0.128 123.648-33.152C370.944 574.592 406.336 261.312 289.6 34.56 274.816 5.76 157.248 50.688 166.016 67.648L166.016 67.648z" p-id="9589" fill="#265D91"></path><path d="M572.928 144.576c-14.848 74.24-141.312 134.848-199.744 168C355.008 322.88 322.24 347.072 342.656 371.456c116.096 138.432 187.392 316.864 355.84 400.32 43.84 21.696 154.496-38.592 96.384-67.392C635.584 625.408 566.592 450.368 456.448 319.04 446.272 338.688 436.096 358.272 425.92 377.92c96.384-54.848 247.616-124.8 271.68-244.864C708.992 76.16 582.976 93.952 572.928 144.576L572.928 144.576z" p-id="9590" fill="#265D91"></path></svg>