<?xml version="1.0" standalone="no"?><!DOCTYPE svg PUBLIC "-//W3C//DTD SVG 1.1//EN" "http://www.w3.org/Graphics/SVG/1.1/DTD/svg11.dtd"><svg t="1541168865182" class="icon" style="" viewBox="0 0 1024 1024" version="1.1" xmlns="http://www.w3.org/2000/svg" p-id="9415" xmlns:xlink="http://www.w3.org/1999/xlink" width="200" height="200"><defs><style type="text/css"></style></defs><path d="M512 128c53.328 0 103.156267 9.000533 149.499733 27.000533 46.328533 18 87.156267 42.343467 122.500267 73.000533 34.656 31.344 62 67.671467 82 109.000533 20 41.344 30 85.671467 30 133.000533 0 29.344-5.671467 57.000533-17.000533 83.000533-11.344 26-26.672 48.343467-46 67.000533-18.672 19.344-41.000533 34.672-67.000533 46-26 11.344-53.671467 17.000533-83.000533 17.000533l-76 0c-8.672 0-16.843733 1.671467-24.500267 5.000533-7.671467 3.344-14.500267 8-20.500267 14-6 5.344-10.672 12-14 20-3.344 8-5.000533 16.343467-5.000533 25.000533 0 4 0.500267 8 1.499733 12s2.155733 7.671467 3.499733 11.000533c1.328 4 3.000533 7.499733 5.000533 10.500267s4 5.844267 6 8.500267c2.656 3.344 5.000533 6.500267 7.000533 9.499733s4 6.500267 6 10.500267c1.328 3.344 2.328533 7.000533 3.000533 11.000533 0.656 4 1.000533 8 1.000533 12 0 9.344-1.671467 17.844267-5.000533 25.499733-3.344 7.671467-8 14.500267-14 20.500267-5.344 5.344-12 9.671467-20 13.000533-8 3.344-16.343467 5.000533-25.000533 5.000533-53.344 0-103.172267-10-149.499733-30-46.343467-20-87.172267-47.328-122.500267-82-34.672-34.656-62-75.328-82-122-20-46.656-30-96.656-30-150 0-52.656 10-102.328533 30-149.000533 20-46.656 47.328-87.328 82-122 35.328-34.656 76.155733-62.155733 122.500267-82.500267C408.8288 138.1728 458.656 128 512 128zM277.000533 512c9.328 0 17.828267-1.656533 25.499733-5.000533 7.656533-3.328 14.500267-7.656533 20.500267-13.000533 5.328-6 9.656533-12.827733 13.000533-20.500267 3.328-7.656533 5.000533-16.155733 5.000533-25.499733 0-8.656-1.671467-16.827733-5.000533-24.500267-3.344-7.656533-7.671467-14.500267-13.000533-20.500267-6-6-12.843733-10.656-20.500267-14-7.671467-3.328-16.171733-5.000533-25.499733-5.000533-8.672 0-16.843733 1.671467-24.500267 5.000533-7.671467 3.344-14.500267 8-20.500267 14s-10.672 12.843733-14 20.500267c-3.344 7.671467-5.000533 15.844267-5.000533 24.500267 0 9.344 1.656533 17.844267 5.000533 25.499733 3.328 7.671467 8 14.500267 14 20.500267 6 5.344 12.827733 9.671467 20.500267 13.000533C260.1568 510.344533 268.328533 512 277.000533 512zM405.000533 342c9.328 0 17.828267-1.656533 25.499733-5.000533 7.656533-3.328 14.500267-8 20.500267-14 5.328-6 9.656533-12.827733 13.000533-20.500267 3.328-7.656533 5.000533-15.828267 5.000533-24.500267 0-9.328-1.671467-17.828267-5.000533-25.499733-3.344-7.656533-7.671467-14.500267-13.000533-20.500267-6-5.328-12.843733-9.656533-20.500267-13.000533-7.671467-3.328-16.171733-5.000533-25.499733-5.000533-8.672 0-16.843733 1.671467-24.500267 5.000533-7.671467 3.344-14.500267 7.671467-20.500267 13.000533-6 6-10.672 12.843733-14 20.500267-3.344 7.671467-5.000533 16.171733-5.000533 25.499733 0 8.672 1.656533 16.843733 5.000533 24.500267 3.328 7.671467 8 14.500267 14 20.500267s12.827733 10.672 20.500267 14C388.1568 340.344533 396.328533 342 405.000533 342zM619.000533 342c8.656 0 16.827733-1.656533 24.500267-5.000533 7.656533-3.328 14.500267-8 20.500267-14s10.656-12.827733 14-20.500267c3.328-7.656533 5.000533-15.828267 5.000533-24.500267 0-9.328-1.671467-17.828267-5.000533-25.499733-3.344-7.656533-8-14.500267-14-20.500267-6-5.328-12.843733-9.656533-20.500267-13.000533-7.671467-3.328-15.844267-5.000533-24.500267-5.000533-9.344 0-17.844267 1.671467-25.499733 5.000533-7.671467 3.344-14.500267 7.671467-20.500267 13.000533-5.344 6-9.671467 12.843733-13.000533 20.500267-3.344 7.671467-5.000533 16.171733-5.000533 25.499733 0 8.672 1.656533 16.843733 5.000533 24.500267 3.328 7.671467 7.656533 14.500267 13.000533 20.500267 6 6 12.827733 10.672 20.500267 14C601.156267 340.344533 609.656533 342 619.000533 342zM747.000533 512c8.656 0 16.827733-1.656533 24.500267-5.000533 7.656533-3.328 14.500267-7.656533 20.500267-13.000533 6-6 10.656-12.827733 14-20.500267 3.328-7.656533 5.000533-16.155733 5.000533-25.499733 0-8.656-1.671467-16.827733-5.000533-24.500267-3.344-7.656533-8-14.500267-14-20.500267s-12.843733-10.656-20.500267-14c-7.671467-3.328-15.844267-5.000533-24.500267-5.000533-9.344 0-17.844267 1.671467-25.499733 5.000533-7.671467 3.344-14.500267 8-20.500267 14-5.344 6-9.671467 12.843733-13.000533 20.500267-3.344 7.671467-5.000533 15.844267-5.000533 24.500267 0 9.344 1.656533 17.844267 5.000533 25.499733 3.328 7.671467 7.656533 14.500267 13.000533 20.500267 6 5.344 12.827733 9.671467 20.500267 13.000533C729.156267 510.344533 737.656533 512 747.000533 512z" p-id="9416" fill="#265D91"></path></svg>