<?xml version="1.0" standalone="no"?><!DOCTYPE svg PUBLIC "-//W3C//DTD SVG 1.1//EN" "http://www.w3.org/Graphics/SVG/1.1/DTD/svg11.dtd"><svg t="1541173438695" class="icon" style="" viewBox="0 0 1024 1024" version="1.1" xmlns="http://www.w3.org/2000/svg" p-id="7015" xmlns:xlink="http://www.w3.org/1999/xlink" width="200" height="200"><defs><style type="text/css"></style></defs><path d="M761.762 62.415H162.361a99.879 99.879 0 0 0-99.946 99.912V861.64a99.879 99.879 0 0 0 99.911 99.946h699.313c54.988 0 99.945-44.958 99.945-99.911V262.239L761.762 62.415z m-567.66 128.581h509.763v191.631H194.103V190.996zM823.999 889.43H200V642.26c0-38.798 33.969-69 77.169-69h470.028c43.2 0 76.799 30.201 76.799 69v247.17zM589.375 222.112h63.937v127.08h-63.937v-127.08z m-160.58 0h63.936v127.08h-63.936v-127.08z m-160.581 0h63.936v127.08h-63.936v-127.08z" p-id="7016" fill="#265D91"></path></svg>