<?xml version="1.0" standalone="no"?><!DOCTYPE svg PUBLIC "-//W3C//DTD SVG 1.1//EN" "http://www.w3.org/Graphics/SVG/1.1/DTD/svg11.dtd"><svg t="1541180090806" class="icon" style="" viewBox="0 0 1024 1024" version="1.1" xmlns="http://www.w3.org/2000/svg" p-id="3384" xmlns:xlink="http://www.w3.org/1999/xlink" width="200" height="200"><defs><style type="text/css"></style></defs><path d="M859.071182 311.25086c-0.207731 27.915793-29.468149 36.838-36.839023 36.838h-239.453651c-10.136871 0-34.488489 0.079818-36.839023-36.838-1.998517-31.403221 26.702152-36.839023 36.839023-36.839023h158.596088l-70.591755-48.704259c-13.974269-9.641591-18.451234-30.203906-9.993608-45.937238 8.410554-15.733333 26.622334-20.658506 40.580231-11.016915l143.117558 98.779748c10.937097 7.53051 15.813151 21.728884 13.462616 35.079959 0.561795 2.721994 1.136893 5.3918 1.121544 8.637728z m-386.809743 36.838h-128.936581c-52.507888 0-72.239278 25.374924-73.678047 55.258534-1.598404 33.081443 21.170159 73.678046 73.678047 73.678047h386.809743c72.958662 0 128.72885 56.521295 128.72885 124.732839s-43.856857 133.157719-116.801193 133.157719H601.19802c-10.136871 0-36.82265-6.843872-36.839023-36.839023-0.031722-34.776038 26.702152-36.856419 36.839023-36.85642h110.517069c52.716642 0 74.126254-17.844413 73.678046-55.258534-0.38374-31.833009-20.961404-55.258535-73.678046-55.258535h-386.809743c-72.65474 0-128.936581-78.649268-128.936581-147.356093 0-68.705801 50.671053-128.935558 123.325793-128.935557h152.966881c10.088776 0 37.174668 3.342118 36.839023 36.839023-0.36839 35.192523-26.750247 36.838-36.839023 36.838z m-275.013541 338.586438c0.031722-0.158612 0.097214-0.286526 0.127913-0.431835 0.704035-3.133364 1.376347-6.26775 2.925633-9.146311 5.835915-10.920724 16.420995-16.196891 27.006074-15.461133 2.238994-0.272199 4.252861-0.415462 5.50027-0.415463h257.873162c10.121522 0 37.782511 5.02034 36.839023 36.85642-1.071402 34.712593-26.717502 36.839023-36.839023 36.839023H340.606956l43.3933 29.931706c13.974269 9.641591 18.46863 30.218232 10.026354 45.937239-4.221138 7.882528-10.904351 13.030781-18.243503 15.045671-7.339152 1.983167-15.381315 0.799202-22.354124-4.02978l-130.183991-89.825818c-11.128455-2.350534-27.309996-7.066953-27.27725-33.897018 0-1.760087 0.367367-3.101641 0.511653-4.716418 0.080841-2.25639 0.288572-4.446265 0.768503-6.686283z" fill="#1AB596" p-id="3385"></path></svg>