<?xml version="1.0" standalone="no"?><!DOCTYPE svg PUBLIC "-//W3C//DTD SVG 1.1//EN" "http://www.w3.org/Graphics/SVG/1.1/DTD/svg11.dtd"><svg t="1541168312231" class="icon" style="" viewBox="0 0 1024 1024" version="1.1" xmlns="http://www.w3.org/2000/svg" p-id="25674" xmlns:xlink="http://www.w3.org/1999/xlink" width="200" height="200"><defs><style type="text/css"></style></defs><path d="M920.177778 384c-91.022222-17.066667-233.244444-45.511111-233.244445-45.511111s-78.222222-145.066667-126.577777-234.666667c-17.066667-32.711111-31.288889-42.666667-39.822223-46.933333-4.266667 0-22.755556-7.111111-51.2 46.933333-49.777778 88.177778-128 233.244444-128 233.244445s-143.644444 28.444444-236.088889 45.511111c-45.511111 7.111111-59.733333 48.355556-36.977777 76.8C132.266667 537.6 248.888889 668.444444 248.888889 668.444444s-18.488889 142.222222-29.866667 238.933334c-4.266667 49.777778 31.288889 71.111111 72.533334 51.2 78.222222-38.4 196.266667-98.133333 223.288888-110.933334 27.022222 12.8 143.644444 73.955556 220.444445 112.355556 39.822222 19.911111 76.8-1.422222 71.111111-51.2-9.955556-98.133333-28.444444-240.355556-28.444444-240.355556s113.777778-129.422222 179.2-207.644444c22.755556-28.444444 7.111111-69.688889-36.977778-76.8zM631.466667 590.222222c-29.866667 41.244444-105.244444 93.866667-108.088889 95.288889-2.844444 1.422222-7.111111 2.844444-9.955556 2.844445-4.266667 0-7.111111-1.422222-9.955555-2.844445-2.844444-2.844444-78.222222-54.044444-108.088889-95.288889-9.955556-14.222222-22.755556-32.711111-22.755556-56.888889 0-42.666667 35.555556-76.8 79.644445-76.8 24.177778 0 46.933333 24.177778 62.577777 41.244445 15.644444-18.488889 38.4-41.244444 62.577778-41.244445 44.088889 0 79.644444 34.133333 79.644445 76.8-2.844444 24.177778-15.644444 42.666667-25.6 56.888889z" fill="#265D91" p-id="25675"></path></svg>